{
    "asset" : {
        "generator" : "Khronos glTF Blender I/O v1.5.17",
        "version" : "2.0"
    },
    "scene" : 0,
    "scenes" : [
        {
            "name" : "Scene",
            "nodes" : [
                0,
                1,
                2,
                3,
                4,
                5,
                6,
                7,
                8,
                9
            ]
        }
    ],
    "nodes" : [
        {
            "mesh" : 0,
            "name" : "window_frame",
            "rotation" : [
                -0.5007109045982361,
                -0.49249035120010376,
                -0.5088417530059814,
                0.4978172183036804
            ]
        },
        {
            "mesh" : 1,
            "name" : "tail_lights",
            "rotation" : [
                -0.5007109045982361,
                -0.49249035120010376,
                -0.5088417530059814,
                0.4978172183036804
            ]
        },
        {
            "mesh" : 2,
            "name" : "solar_panel_1",
            "rotation" : [
                -0.5007109045982361,
                -0.49249035120010376,
                -0.5088417530059814,
                0.4978172183036804
            ]
        },
        {
            "mesh" : 3,
            "name" : "solar_panel_2",
            "rotation" : [
                -0.5007109045982361,
                -0.49249035120010376,
                -0.5088417530059814,
                0.4978172183036804
            ]
        },
        {
            "mesh" : 4,
            "name" : "wheels",
            "rotation" : [
                -0.5007109045982361,
                -0.49249035120010376,
                -0.5088417530059814,
                0.4978172183036804
            ]
        },
        {
            "mesh" : 5,
            "name" : "glass",
            "rotation" : [
                -0.5007109045982361,
                -0.49249035120010376,
                -0.5088417530059814,
                0.4978172183036804
            ]
        },
        {
            "mesh" : 6,
            "name" : "rims",
            "rotation" : [
                -0.5007109045982361,
                -0.49249035120010376,
                -0.5088417530059814,
                0.4978172183036804
            ]
        },
        {
            "mesh" : 7,
            "name" : "indicators",
            "rotation" : [
                -0.5007109045982361,
                -0.49249035120010376,
                -0.5088417530059814,
                0.4978172183036804
            ]
        },
        {
            "mesh" : 8,
            "name" : "main_lights",
            "rotation" : [
                -0.5007109045982361,
                -0.49249035120010376,
                -0.5088417530059814,
                0.4978172183036804
            ]
        },
        {
            "mesh" : 9,
            "name" : "body",
            "rotation" : [
                -0.5007109045982361,
                -0.49249035120010376,
                -0.5088417530059814,
                0.4978172183036804
            ]
        }
    ],
    "materials" : [
        {
            "doubleSided" : true,
            "name" : "Black_glass",
            "pbrMetallicRoughness" : {
                "baseColorFactor" : [
                    0,
                    0,
                    0,
                    1
                ],
                "metallicFactor" : 0,
                "roughnessFactor" : 0.20000000298023224
            }
        },
        {
            "doubleSided" : true,
            "emissiveFactor" : [
                1,
                0.037262801080942154,
                0.008782884106040001
            ],
            "name" : "Orange",
            "pbrMetallicRoughness" : {
                "baseColorFactor" : [
                    0.3052835762500763,
                    0.06241104379296303,
                    0.006016374099999666,
                    1
                ],
                "metallicFactor" : 0
            }
        },
        {
            "doubleSided" : true,
            "name" : "SB_black",
            "pbrMetallicRoughness" : {
                "baseColorFactor" : [
                    0.07935521006584167,
                    0.086990125477314,
                    0.09503719210624695,
                    1
                ],
                "metallicFactor" : 0,
                "roughnessFactor" : 0.5
            }
        },
        {
            "doubleSided" : true,
            "name" : "SB_gray",
            "pbrMetallicRoughness" : {
                "baseColorFactor" : [
                    0.10263288021087646,
                    0.1109415590763092,
                    0.11962991952896118,
                    1
                ],
                "metallicFactor" : 0,
                "roughnessFactor" : 0.5
            }
        },
        {
            "doubleSided" : true,
            "name" : "Black",
            "pbrMetallicRoughness" : {
                "baseColorFactor" : [
                    0,
                    0,
                    0,
                    1
                ],
                "metallicFactor" : 0
            }
        },
        {
            "doubleSided" : true,
            "name" : "Glass",
            "pbrMetallicRoughness" : {
                "baseColorFactor" : [
                    0,
                    0,
                    0,
                    1
                ],
                "metallicFactor" : 0,
                "roughnessFactor" : 0.15000000596046448
            }
        },
        {
            "doubleSided" : true,
            "name" : "Gray",
            "pbrMetallicRoughness" : {
                "baseColorFactor" : [
                    0.011612244881689548,
                    0.011612244881689548,
                    0.011612244881689548,
                    1
                ],
                "metallicFactor" : 0
            }
        },
        {
            "doubleSided" : true,
            "emissiveFactor" : [
                1,
                0.07512202113866806,
                0.008782884106040001
            ],
            "name" : "Light_orange",
            "pbrMetallicRoughness" : {
                "baseColorFactor" : [
                    0.8069522380828857,
                    0.12963242828845978,
                    0.0043914420530200005,
                    1
                ],
                "metallicFactor" : 0
            }
        },
        {
            "doubleSided" : true,
            "emissiveFactor" : [
                1,
                1,
                1
            ],
            "name" : "Light_white",
            "pbrMetallicRoughness" : {
                "metallicFactor" : 0
            }
        },
        {
            "doubleSided" : true,
            "name" : "Silver",
            "pbrMetallicRoughness" : {
                "baseColorFactor" : [
                    0.1119324266910553,
                    0.12477181851863861,
                    0.1384316086769104,
                    1
                ],
                "metallicFactor" : 0,
                "roughnessFactor" : 0.800000011920929
            }
        }
    ],
    "meshes" : [
        {
            "name" : "window_frame",
            "primitives" : [
                {
                    "attributes" : {
                        "POSITION" : 0,
                        "NORMAL" : 1,
                        "TEXCOORD_0" : 2
                    },
                    "indices" : 3,
                    "material" : 0
                }
            ]
        },
        {
            "name" : "tail_lights",
            "primitives" : [
                {
                    "attributes" : {
                        "POSITION" : 4,
                        "NORMAL" : 5,
                        "TEXCOORD_0" : 6
                    },
                    "indices" : 7,
                    "material" : 1
                }
            ]
        },
        {
            "name" : "solar_panel_1",
            "primitives" : [
                {
                    "attributes" : {
                        "POSITION" : 8,
                        "NORMAL" : 9,
                        "TEXCOORD_0" : 10
                    },
                    "indices" : 11,
                    "material" : 2
                }
            ]
        },
        {
            "name" : "solar_panel_2",
            "primitives" : [
                {
                    "attributes" : {
                        "POSITION" : 12,
                        "NORMAL" : 13,
                        "TEXCOORD_0" : 14
                    },
                    "indices" : 11,
                    "material" : 3
                }
            ]
        },
        {
            "name" : "wheels",
            "primitives" : [
                {
                    "attributes" : {
                        "POSITION" : 15,
                        "NORMAL" : 16,
                        "TEXCOORD_0" : 17
                    },
                    "indices" : 18,
                    "material" : 4
                }
            ]
        },
        {
            "name" : "glass",
            "primitives" : [
                {
                    "attributes" : {
                        "POSITION" : 19,
                        "NORMAL" : 20,
                        "TEXCOORD_0" : 21
                    },
                    "indices" : 22,
                    "material" : 5
                }
            ]
        },
        {
            "name" : "rims",
            "primitives" : [
                {
                    "attributes" : {
                        "POSITION" : 23,
                        "NORMAL" : 24,
                        "TEXCOORD_0" : 25
                    },
                    "indices" : 26,
                    "material" : 6
                }
            ]
        },
        {
            "name" : "indicators",
            "primitives" : [
                {
                    "attributes" : {
                        "POSITION" : 27,
                        "NORMAL" : 28,
                        "TEXCOORD_0" : 29
                    },
                    "indices" : 30,
                    "material" : 7
                }
            ]
        },
        {
            "name" : "main_lights",
            "primitives" : [
                {
                    "attributes" : {
                        "POSITION" : 31,
                        "NORMAL" : 32,
                        "TEXCOORD_0" : 33
                    },
                    "indices" : 34,
                    "material" : 8
                }
            ]
        },
        {
            "name" : "body",
            "primitives" : [
                {
                    "attributes" : {
                        "POSITION" : 35,
                        "NORMAL" : 36,
                        "TEXCOORD_0" : 37
                    },
                    "indices" : 38,
                    "material" : 9
                }
            ]
        }
    ],
    "accessors" : [
        {
            "bufferView" : 0,
            "componentType" : 5126,
            "count" : 192,
            "max" : [
                0.8637650012969971,
                0.8162199854850769,
                1.763659954071045
            ],
            "min" : [
                -0.8637650012969971,
                -1.2404650449752808,
                1.3037689924240112
            ],
            "type" : "VEC3"
        },
        {
            "bufferView" : 1,
            "componentType" : 5126,
            "count" : 192,
            "type" : "VEC3"
        },
        {
            "bufferView" : 2,
            "componentType" : 5126,
            "count" : 192,
            "type" : "VEC2"
        },
        {
            "bufferView" : 3,
            "componentType" : 5123,
            "count" : 216,
            "type" : "SCALAR"
        },
        {
            "bufferView" : 4,
            "componentType" : 5126,
            "count" : 22,
            "max" : [
                0.8956850171089172,
                2.838038921356201,
                1.4226369857788086
            ],
            "min" : [
                -0.8956850171089172,
                2.8331499099731445,
                1.3898119926452637
            ],
            "type" : "VEC3"
        },
        {
            "bufferView" : 5,
            "componentType" : 5126,
            "count" : 22,
            "type" : "VEC3"
        },
        {
            "bufferView" : 6,
            "componentType" : 5126,
            "count" : 22,
            "type" : "VEC2"
        },
        {
            "bufferView" : 7,
            "componentType" : 5123,
            "count" : 24,
            "type" : "SCALAR"
        },
        {
            "bufferView" : 8,
            "componentType" : 5126,
            "count" : 48,
            "max" : [
                0.817874014377594,
                2.7488389015197754,
                1.6669130325317383
            ],
            "min" : [
                -0.817874014377594,
                0.9937499761581421,
                1.4529949426651
            ],
            "type" : "VEC3"
        },
        {
            "bufferView" : 9,
            "componentType" : 5126,
            "count" : 48,
            "type" : "VEC3"
        },
        {
            "bufferView" : 10,
            "componentType" : 5126,
            "count" : 48,
            "type" : "VEC2"
        },
        {
            "bufferView" : 11,
            "componentType" : 5123,
            "count" : 72,
            "type" : "SCALAR"
        },
        {
            "bufferView" : 12,
            "componentType" : 5126,
            "count" : 48,
            "max" : [
                0.8160830140113831,
                2.6725308895111084,
                1.676213026046753
            ],
            "min" : [
                -0.8160830140113831,
                0.9174410104751587,
                1.4622960090637207
            ],
            "type" : "VEC3"
        },
        {
            "bufferView" : 13,
            "componentType" : 5126,
            "count" : 48,
            "type" : "VEC3"
        },
        {
            "bufferView" : 14,
            "componentType" : 5126,
            "count" : 48,
            "type" : "VEC2"
        },
        {
            "bufferView" : 15,
            "componentType" : 5126,
            "count" : 9817,
            "max" : [
                1.0562679767608643,
                2.8415210247039795,
                1.4460140466690063
            ],
            "min" : [
                -1.0562679767608643,
                -2.493673086166382,
                -0.009204000234603882
            ],
            "type" : "VEC3"
        },
        {
            "bufferView" : 16,
            "componentType" : 5126,
            "count" : 9817,
            "type" : "VEC3"
        },
        {
            "bufferView" : 17,
            "componentType" : 5126,
            "count" : 9817,
            "type" : "VEC2"
        },
        {
            "bufferView" : 18,
            "componentType" : 5123,
            "count" : 21591,
            "type" : "SCALAR"
        },
        {
            "bufferView" : 19,
            "componentType" : 5126,
            "count" : 89,
            "max" : [
                0.9064779877662659,
                0.8438509702682495,
                1.8612200021743774
            ],
            "min" : [
                -0.9064779877662659,
                -2.0988519191741943,
                1.2546230554580688
            ],
            "type" : "VEC3"
        },
        {
            "bufferView" : 20,
            "componentType" : 5126,
            "count" : 89,
            "type" : "VEC3"
        },
        {
            "bufferView" : 21,
            "componentType" : 5126,
            "count" : 89,
            "type" : "VEC2"
        },
        {
            "bufferView" : 22,
            "componentType" : 5123,
            "count" : 117,
            "type" : "SCALAR"
        },
        {
            "bufferView" : 23,
            "componentType" : 5126,
            "count" : 2788,
            "max" : [
                1.066735029220581,
                2.7821218967437744,
                1.1587979793548584
            ],
            "min" : [
                -1.066735029220581,
                -2.826530933380127,
                0.12357699871063232
            ],
            "type" : "VEC3"
        },
        {
            "bufferView" : 24,
            "componentType" : 5126,
            "count" : 2788,
            "type" : "VEC3"
        },
        {
            "bufferView" : 25,
            "componentType" : 5126,
            "count" : 2788,
            "type" : "VEC2"
        },
        {
            "bufferView" : 26,
            "componentType" : 5123,
            "count" : 3888,
            "type" : "SCALAR"
        },
        {
            "bufferView" : 27,
            "componentType" : 5126,
            "count" : 118,
            "max" : [
                0.9320899844169617,
                2.8415210247039795,
                1.446455955505371
            ],
            "min" : [
                -0.9320899844169617,
                -2.735836982727051,
                0.621882975101471
            ],
            "type" : "VEC3"
        },
        {
            "bufferView" : 28,
            "componentType" : 5126,
            "count" : 118,
            "type" : "VEC3"
        },
        {
            "bufferView" : 29,
            "componentType" : 5126,
            "count" : 118,
            "type" : "VEC2"
        },
        {
            "bufferView" : 30,
            "componentType" : 5123,
            "count" : 150,
            "type" : "SCALAR"
        },
        {
            "bufferView" : 31,
            "componentType" : 5126,
            "count" : 66,
            "max" : [
                0.9645869731903076,
                2.6082398891448975,
                1.853471040725708
            ],
            "min" : [
                -0.9645869731903076,
                -2.8494861125946045,
                0.4718399941921234
            ],
            "type" : "VEC3"
        },
        {
            "bufferView" : 32,
            "componentType" : 5126,
            "count" : 66,
            "type" : "VEC3"
        },
        {
            "bufferView" : 33,
            "componentType" : 5126,
            "count" : 66,
            "type" : "VEC2"
        },
        {
            "bufferView" : 34,
            "componentType" : 5123,
            "count" : 90,
            "type" : "SCALAR"
        },
        {
            "bufferView" : 35,
            "componentType" : 5126,
            "count" : 850,
            "max" : [
                0.9721310138702393,
                2.8390660285949707,
                1.8591389656066895
            ],
            "min" : [
                -1.0246330499649048,
                -2.884434938430786,
                0.4485740065574646
            ],
            "type" : "VEC3"
        },
        {
            "bufferView" : 36,
            "componentType" : 5126,
            "count" : 850,
            "type" : "VEC3"
        },
        {
            "bufferView" : 37,
            "componentType" : 5126,
            "count" : 850,
            "type" : "VEC2"
        },
        {
            "bufferView" : 38,
            "componentType" : 5123,
            "count" : 1221,
            "type" : "SCALAR"
        }
    ],
    "bufferViews" : [
        {
            "buffer" : 0,
            "byteLength" : 2304,
            "byteOffset" : 0
        },
        {
            "buffer" : 0,
            "byteLength" : 2304,
            "byteOffset" : 2304
        },
        {
            "buffer" : 0,
            "byteLength" : 1536,
            "byteOffset" : 4608
        },
        {
            "buffer" : 0,
            "byteLength" : 432,
            "byteOffset" : 6144
        },
        {
            "buffer" : 0,
            "byteLength" : 264,
            "byteOffset" : 6576
        },
        {
            "buffer" : 0,
            "byteLength" : 264,
            "byteOffset" : 6840
        },
        {
            "buffer" : 0,
            "byteLength" : 176,
            "byteOffset" : 7104
        },
        {
            "buffer" : 0,
            "byteLength" : 48,
            "byteOffset" : 7280
        },
        {
            "buffer" : 0,
            "byteLength" : 576,
            "byteOffset" : 7328
        },
        {
            "buffer" : 0,
            "byteLength" : 576,
            "byteOffset" : 7904
        },
        {
            "buffer" : 0,
            "byteLength" : 384,
            "byteOffset" : 8480
        },
        {
            "buffer" : 0,
            "byteLength" : 144,
            "byteOffset" : 8864
        },
        {
            "buffer" : 0,
            "byteLength" : 576,
            "byteOffset" : 9008
        },
        {
            "buffer" : 0,
            "byteLength" : 576,
            "byteOffset" : 9584
        },
        {
            "buffer" : 0,
            "byteLength" : 384,
            "byteOffset" : 10160
        },
        {
            "buffer" : 0,
            "byteLength" : 117804,
            "byteOffset" : 10544
        },
        {
            "buffer" : 0,
            "byteLength" : 117804,
            "byteOffset" : 128348
        },
        {
            "buffer" : 0,
            "byteLength" : 78536,
            "byteOffset" : 246152
        },
        {
            "buffer" : 0,
            "byteLength" : 43182,
            "byteOffset" : 324688
        },
        {
            "buffer" : 0,
            "byteLength" : 1068,
            "byteOffset" : 367872
        },
        {
            "buffer" : 0,
            "byteLength" : 1068,
            "byteOffset" : 368940
        },
        {
            "buffer" : 0,
            "byteLength" : 712,
            "byteOffset" : 370008
        },
        {
            "buffer" : 0,
            "byteLength" : 234,
            "byteOffset" : 370720
        },
        {
            "buffer" : 0,
            "byteLength" : 33456,
            "byteOffset" : 370956
        },
        {
            "buffer" : 0,
            "byteLength" : 33456,
            "byteOffset" : 404412
        },
        {
            "buffer" : 0,
            "byteLength" : 22304,
            "byteOffset" : 437868
        },
        {
            "buffer" : 0,
            "byteLength" : 7776,
            "byteOffset" : 460172
        },
        {
            "buffer" : 0,
            "byteLength" : 1416,
            "byteOffset" : 467948
        },
        {
            "buffer" : 0,
            "byteLength" : 1416,
            "byteOffset" : 469364
        },
        {
            "buffer" : 0,
            "byteLength" : 944,
            "byteOffset" : 470780
        },
        {
            "buffer" : 0,
            "byteLength" : 300,
            "byteOffset" : 471724
        },
        {
            "buffer" : 0,
            "byteLength" : 792,
            "byteOffset" : 472024
        },
        {
            "buffer" : 0,
            "byteLength" : 792,
            "byteOffset" : 472816
        },
        {
            "buffer" : 0,
            "byteLength" : 528,
            "byteOffset" : 473608
        },
        {
            "buffer" : 0,
            "byteLength" : 180,
            "byteOffset" : 474136
        },
        {
            "buffer" : 0,
            "byteLength" : 10200,
            "byteOffset" : 474316
        },
        {
            "buffer" : 0,
            "byteLength" : 10200,
            "byteOffset" : 484516
        },
        {
            "buffer" : 0,
            "byteLength" : 6800,
            "byteOffset" : 494716
        },
        {
            "buffer" : 0,
            "byteLength" : 2442,
            "byteOffset" : 501516
        }
    ],
    "buffers" : [
        {
            "byteLength" : 503960,
            "uri" : "data:application/octet-stream;base64,"
        }
    ]
}
